<svg width="88" height="22" viewBox="0 0 88 22" fill="none" xmlns="http://www.w3.org/2000/svg">
<rect width="88" height="22" rx="4" fill="#F15044"/>
<path fill-rule="evenodd" clip-rule="evenodd" d="M74.3915 10.5882V5.18131H71.5V16H74.3915V14.0256L78.1085 10.2673V16H81V5.18185H78.1085V6.80771L74.3915 10.5877V10.5882ZM60.0873 16H62.8262V11.0764C64.0652 11.0098 64.2967 11.5695 65.0227 13.0384C65.6624 14.3189 66.2595 15.7272 68.0881 15.7272C68.3967 15.7272 68.6085 15.6828 69.0219 15.5335V13.2933C68.1957 13.2267 68.289 12.889 67.6718 11.8856C66.8139 10.4112 66.2911 10.0291 65.72 9.94524C66.6458 9.69086 67.0523 9.15287 67.3378 8.74803C67.7783 8.11046 68.1117 7.51186 68.8198 7.51186C68.9062 7.51186 68.6085 7.51186 69.0214 7.53405V5.21162C68.6085 5.0617 68.5176 5.00054 68.0374 5.00054C66.4086 5.00054 65.5346 6.02618 64.5863 7.49562C64.1004 8.2436 63.6524 8.90282 62.8262 8.83679V5.18185H59.9348V8.83679C59.1085 8.90336 58.8224 8.23819 58.3422 7.49508C57.3939 6.02076 56.5263 5.00054 54.8975 5.00054C54.4121 5.00054 54.1524 5.0617 53.739 5.21162V7.54C53.739 7.51727 54.0332 7.51727 54.1248 7.51727C54.8272 7.51727 55.2803 8.11641 55.7254 8.75398C56.0115 9.15829 56.395 9.69573 57.3151 9.95119C56.7433 10.0394 55.935 10.4221 55.0777 11.891C54.4662 12.8944 54.5652 13.2386 53.3262 13.2993V15.5389C53.739 15.6882 54.2981 15.7326 54.6067 15.7326C56.4295 15.7326 57.2137 14.3249 57.854 13.0443C58.5794 11.5695 58.2823 11.0147 59.9348 11.0818V16H60.0873ZM34.739 7.58601V16H37.6305V7.58601H40.5219V5.18185H32.261V7.58601H34.739ZM21.4292 13.8091C22.7546 15.1118 23.9378 15.7326 25.7664 15.7326C28.4293 15.7326 31.4181 14.3687 31.4181 10.2283C31.4181 5.89899 28.0522 5.00054 25.8747 5.00054C24.9719 5.00054 23.3033 5.32257 21.7833 6.58094L23.4116 8.28798C24.0921 7.58384 24.8867 7.2407 25.7895 7.2407C27.6808 7.2407 27.8725 8.73721 27.8956 9.44081L24.4128 9.24705V11.5527L27.8956 11.3589C27.8495 11.9575 27.6227 13.4936 25.7538 13.4936C24.4796 13.4936 23.6171 12.8116 23.0857 12.1681L21.4292 13.8091ZM43.8072 8.34914C44.6409 7.77273 45.9208 7.34516 46.8415 7.34516C48.1214 7.34516 48.4242 7.72781 48.4018 8.92556C44.7952 9.00836 42.2008 9.929 42.2008 12.7672C42.2008 14.2805 43.167 15.7332 45.7671 15.7332C47.218 15.7332 48.2302 15.3283 49.2239 14.5798C49.8872 15.672 50.7324 15.7326 51.2811 15.7326C51.6755 15.7326 52.0872 15.672 52.0872 15.5389V13.2993C51.261 13.3658 51.261 12.6785 51.261 11.7416V8.64844C51.261 7.49562 51.0911 5.00054 47.0856 5.00054C46.3826 5.00054 44.5263 5.0617 42.5428 6.43102L43.8072 8.34914ZM48.3695 10.9541V12.5789C47.5433 12.961 47.0453 13.388 46.4511 13.388C45.8114 13.388 45.2535 13.1326 45.2535 12.5123C45.2535 11.5089 46.3043 10.9319 48.3695 10.9541ZM12.6403 16H5L5.95403 8.84599L12.3772 5L17.9833 11.5024L18.0294 11.7632L12.3945 5.66301L12.4117 6.3796L18.0743 12.0371L18.1204 12.3131L12.429 7.08591L12.4463 7.86691L18.1486 12.6173L18.1946 12.8944L12.4687 8.57051L12.486 9.30225L18.2574 13.1991L18.3035 13.4768L12.5021 10.0118L12.5194 10.6829L18.3253 13.7203L18.3714 13.998L12.5424 11.3865L12.5597 12.1183L18.4514 14.3081L18.4969 14.5852L12.5827 12.8224L12.6 13.604L18.543 14.8959L18.589 15.173L12.6167 14.3081L12.634 15.0231L18.6282 15.4501L18.6742 15.8582L12.6397 16H12.6403Z" fill="white"/>
</svg>
