<svg width="24" height="24" viewBox="0 0 24 24" fill="none" xmlns="http://www.w3.org/2000/svg">
<rect x="4" y="5" width="16" height="13" fill="#5A5A5A"/>
<path fill-rule="evenodd" clip-rule="evenodd" d="M11.9611 2.94141L3.99546 4.13625L2.40234 11.7036L3.99546 18.4743L6.78342 19.6692L7.1817 22.8554L10.7662 19.6692L16.3421 19.2709L20.3249 16.4829L21.1215 10.1104L19.9266 4.13625L11.9611 2.94141ZM16.808 11.6395C16.8589 11.6901 16.9278 11.7185 16.9996 11.7186L17.0022 11.7192C17.0743 11.7186 17.1432 11.6894 17.1938 11.6381C17.2444 11.5867 17.2725 11.5173 17.272 11.4452C17.2578 9.65317 16.7085 8.21448 15.6432 7.17661C14.5779 6.13874 13.2373 5.60689 11.6586 5.59528H11.6563C11.5841 5.59502 11.5148 5.62344 11.4636 5.67428C11.4124 5.72511 11.3835 5.79421 11.3833 5.86636C11.383 5.93852 11.4114 6.00782 11.4623 6.05902C11.4874 6.08437 11.5174 6.10452 11.5503 6.11831C11.5833 6.1321 11.6186 6.13926 11.6544 6.13938C13.0882 6.14971 14.3023 6.62992 15.2634 7.56581C16.236 8.51526 16.715 9.78549 16.7275 11.4485C16.7281 11.5203 16.7571 11.5889 16.808 11.6395ZM15.5709 11.1603H15.5644C15.4923 11.1586 15.4238 11.1284 15.374 11.0762C15.3242 11.024 15.2972 10.9542 15.2988 10.8821C15.3198 9.95237 15.0542 9.19946 14.4868 8.58049C13.9195 7.96151 13.1466 7.62588 12.1161 7.55036C12.0441 7.5451 11.977 7.51142 11.9298 7.45674C11.8826 7.40206 11.859 7.33085 11.8643 7.25878C11.8695 7.18671 11.9032 7.11969 11.9579 7.07245C12.0126 7.02521 12.0838 7.00163 12.1558 7.0069C13.3154 7.09177 14.2345 7.49743 14.888 8.21226C15.5415 8.92709 15.8665 9.83135 15.8426 10.8934C15.8412 10.9646 15.8119 11.0324 15.7611 11.0823C15.7103 11.1321 15.6421 11.1602 15.5709 11.1603ZM13.9875 10.6176C14.038 10.6657 14.105 10.6925 14.1748 10.6925H14.1883C14.224 10.6907 14.259 10.6819 14.2913 10.6666C14.3236 10.6513 14.3525 10.6298 14.3765 10.6033C14.4005 10.5768 14.419 10.5458 14.431 10.5122C14.443 10.4785 14.4483 10.4429 14.4465 10.4072C14.3865 9.20149 13.7352 8.53249 12.5637 8.46794C12.4928 8.46591 12.4239 8.49167 12.3717 8.53972C12.3195 8.58778 12.2881 8.65434 12.2843 8.72519C12.2804 8.79605 12.3045 8.8656 12.3512 8.91901C12.3979 8.97241 12.4636 9.00545 12.5344 9.01108C13.4222 9.05884 13.8572 9.51098 13.9033 10.4343C13.9068 10.5039 13.9369 10.5696 13.9875 10.6176ZM12.6028 14.0642C12.6028 14.0642 12.9852 14.0964 13.1911 13.8428L13.5926 13.3377C13.7862 13.0873 14.2535 12.9275 14.7112 13.1825C15.0541 13.3781 15.387 13.5907 15.7087 13.8195C15.9529 13.9991 16.4028 14.3698 16.5707 14.5082C16.6116 14.5419 16.6362 14.5618 16.6362 14.5618C16.9325 14.8119 17.0009 15.1792 16.7992 15.5664C16.7992 15.5676 16.7988 15.5691 16.7984 15.5706C16.798 15.5721 16.7976 15.5735 16.7976 15.5745C16.5754 15.9596 16.2934 16.3069 15.962 16.6033C15.9612 16.6038 15.9603 16.6044 15.9597 16.6049L15.9581 16.6064C15.9581 16.6064 15.9563 16.6082 15.9546 16.6091C15.6667 16.8497 15.3839 16.9864 15.1062 17.0193C15.0653 17.0265 15.0237 17.0291 14.9822 17.0271C14.8598 17.0283 14.7379 17.0095 14.6214 16.9716L14.6124 16.9583C14.1845 16.8376 13.47 16.5356 12.2801 15.8792C11.5915 15.5038 10.936 15.0707 10.3205 14.5847C10.012 14.3412 9.71778 14.0803 9.43919 13.8031L9.35012 13.714C9.34346 13.7076 9.33695 13.701 9.33039 13.6944L9.32043 13.6843C9.04324 13.4057 8.78227 13.1115 8.5388 12.803C8.05284 12.1876 7.61982 11.5321 7.24436 10.8437C6.58795 9.65354 6.28588 8.93968 6.16518 8.51111L6.15195 8.50207C6.11412 8.38559 6.09548 8.26373 6.09677 8.14127C6.09451 8.09981 6.097 8.05823 6.10419 8.01734C6.13883 7.74002 6.27577 7.45699 6.51501 7.16827C6.51594 7.16657 6.51779 7.1648 6.51779 7.1648C6.51779 7.1648 6.51981 7.16286 6.52082 7.16084C6.81718 6.82951 7.16448 6.54757 7.54966 6.32564L7.5534 6.32473C7.55494 6.32423 7.55772 6.3237 7.55772 6.3237C7.94499 6.122 8.31225 6.19042 8.56203 6.48506C8.56397 6.487 9.08194 7.10889 9.30429 7.41257C9.53318 7.73456 9.74579 8.06781 9.94134 8.41106C10.1963 8.86836 10.0365 9.33663 9.78611 9.52962L9.28106 9.93108C9.02611 10.137 9.05967 10.5194 9.05967 10.5194C9.05967 10.5194 9.80774 13.3506 12.6028 14.0642Z" fill="white"/>
<path d="M19.6989 3.84421C19.1644 3.3511 17.0048 1.78332 12.1943 1.76202C12.1943 1.76202 6.52152 1.41993 3.75612 3.95652C2.21674 5.49622 1.67522 7.74914 1.61809 10.5423C1.56097 13.3354 1.48707 18.57 6.53281 19.9893H6.53765L6.53443 22.1551C6.53443 22.1551 6.50216 23.0319 7.0795 23.2107C7.77787 23.4276 8.18773 22.7612 8.85447 22.0428C9.22044 21.6484 9.72582 21.0691 10.1066 20.6264C13.5575 20.9168 16.2115 20.253 16.513 20.1549C17.2097 19.929 21.1524 19.4236 21.7937 14.1897C22.4556 8.79476 21.4735 5.3823 19.6989 3.84421ZM20.2836 13.8027C19.7424 18.173 16.5446 18.4477 15.955 18.6368C15.7042 18.7175 13.3732 19.2974 10.4419 19.106C10.4419 19.106 8.25776 21.741 7.57553 22.4262C7.46903 22.5333 7.34381 22.5766 7.26023 22.5553C7.14276 22.5265 7.11048 22.3874 7.11178 22.1841C7.11371 21.8937 7.13049 18.5851 7.13049 18.5851C7.13049 18.5851 7.12791 18.5851 7.13049 18.5851C2.86218 17.4001 3.111 12.945 3.15941 10.612C3.20782 8.27905 3.64607 6.36789 4.94793 5.0825C7.28701 2.96383 12.1056 3.28042 12.1056 3.28042C16.1748 3.29817 18.1246 4.52354 18.5768 4.93404C20.0781 6.21944 20.8429 9.2953 20.2836 13.8015V13.8027Z" fill="white"/>
</svg>
