<svg width="24" height="24" viewBox="0 0 24 24" fill="none" xmlns="http://www.w3.org/2000/svg">
<circle cx="12.5" cy="12.5" r="9.5" fill="#5A5A5A"/>
<path fill-rule="evenodd" clip-rule="evenodd" d="M22.5263 12C22.5263 6.47715 17.9313 2 12.2632 2C6.59497 2 2 6.47715 2 12C2 17.5228 6.59497 22 12.2632 22C17.9313 22 22.5263 17.5228 22.5263 12ZM7.98695 16.166C8.25075 17.4886 8.64213 18.6587 9.14105 19.5973C7.01509 18.7668 5.31871 17.1137 4.46669 15.042C5.42974 15.5279 6.63022 15.9091 7.98695 16.166ZM20.0625 15.0406C19.0988 15.5272 17.8969 15.909 16.5385 16.1662C16.2745 17.4894 15.8829 18.6601 15.3836 19.5989C17.5119 18.7687 19.2102 17.1142 20.0625 15.0406ZM16.9278 12C16.9278 12.7684 16.8913 13.5179 16.8209 14.2386C19.1411 13.7052 20.6614 12.8179 20.6614 12.0002C20.6614 11.1825 19.1412 10.2953 16.821 9.76185C16.8914 10.4825 16.9278 11.2318 16.9278 12ZM9.14081 4.40312C8.64201 5.34165 8.25071 6.51165 7.98695 7.83396C6.6303 8.09091 5.42989 8.47205 4.46687 8.95788C5.31891 6.88654 7.01512 5.2336 9.14081 4.40312ZM20.0624 8.95935C19.0986 8.47272 17.8969 8.09101 16.5385 7.8338C16.2746 6.51082 15.883 5.34031 15.3838 4.40155C17.5119 5.23172 19.21 6.88602 20.0624 8.95935ZM7.59766 12C7.59766 12.7681 7.63408 13.5173 7.70446 14.2379C5.38607 13.7044 3.86719 12.8175 3.86719 12.0002C3.86719 11.1829 5.38605 10.2961 7.70441 9.76259C7.63407 10.483 7.59766 11.232 7.59766 12ZM9.46484 12.0002C9.46484 11.0999 9.5228 10.2362 9.62592 9.42965C10.4535 9.32922 11.3397 9.27277 12.2635 9.27277C13.1876 9.27277 14.0741 9.32925 14.9019 9.42974C15.005 10.2362 15.0629 11.0999 15.0629 12.0002C15.0629 12.9003 15.005 13.7638 14.9019 14.5701C14.0741 14.6706 13.1876 14.7271 12.2635 14.7271C11.3397 14.7271 10.4534 14.6706 9.62586 14.5702C9.52277 13.7638 9.46484 12.9003 9.46484 12.0002ZM9.9669 16.4412C10.5144 18.7012 11.4248 20.182 12.2639 20.182C13.103 20.182 14.0134 18.7012 14.5609 16.4411C13.8212 16.5097 13.0521 16.5453 12.2635 16.5453C11.4752 16.5453 10.7063 16.5098 9.9669 16.4412ZM12.2635 7.45459C11.4753 7.45459 10.7064 7.49007 9.96703 7.55863C10.5145 5.2989 11.4249 3.81836 12.2639 3.81836C13.1029 3.81836 14.0133 5.29894 14.5608 7.5587C13.8211 7.4901 13.052 7.45459 12.2635 7.45459Z" fill="white"/>
</svg>
