<svg width="25" height="24" viewBox="0 0 25 24" fill="none" xmlns="http://www.w3.org/2000/svg">
<path d="M3.70827 10.749C9.07697 8.20876 12.6569 6.5341 14.4482 5.72499C19.5626 3.41482 20.6253 3.01352 21.318 3.00013C21.4703 2.99736 21.8109 3.03836 22.0316 3.23279C22.2179 3.39697 22.2692 3.61876 22.2937 3.77442C22.3182 3.93008 22.3488 4.28467 22.3245 4.56174C22.0473 7.72419 20.8481 15.3986 20.238 18.9406C19.9799 20.4394 19.4715 20.9419 18.9794 20.9911C17.91 21.098 17.0979 20.2235 16.062 19.4861C14.4412 18.3323 13.5255 17.614 11.9522 16.488C10.1339 15.1868 11.3126 14.4716 12.3488 13.3028C12.62 12.9969 17.3321 8.34235 17.4233 7.92011C17.4347 7.8673 17.4453 7.67045 17.3376 7.56651C17.2299 7.46257 17.071 7.49812 16.9563 7.52638C16.7937 7.56645 14.2044 9.42509 9.18824 13.1023C8.45326 13.6504 7.78754 13.9174 7.19107 13.9035C6.53352 13.888 5.26865 13.4997 4.32835 13.1678C3.17503 12.7606 2.2584 12.5454 2.33822 11.8539C2.37979 11.4938 2.83648 11.1255 3.70827 10.749Z" fill="white"/>
</svg>
