<svg width="25" height="24" viewBox="0 0 25 24" fill="none" xmlns="http://www.w3.org/2000/svg">
<path d="M20.3005 5.70502C20.1526 5.62827 20.0085 5.54414 19.869 5.45294C19.4631 5.18367 19.091 4.86638 18.7606 4.50791C17.934 3.55875 17.6253 2.59584 17.5116 1.92166H17.5161C17.4211 1.36207 17.4604 1 17.4663 1H13.7014V15.61C13.7014 15.8062 13.7014 16 13.6932 16.1916C13.6932 16.2154 13.6909 16.2374 13.6896 16.2631C13.6896 16.2737 13.6896 16.2847 13.6873 16.2957C13.6873 16.2984 13.6873 16.3012 13.6873 16.3039C13.6476 16.8281 13.4801 17.3345 13.1997 17.7785C12.9192 18.2225 12.5343 18.5906 12.0788 18.8503C11.6041 19.1213 11.0672 19.2635 10.5211 19.2628C8.76694 19.2628 7.34528 17.8273 7.34528 16.0546C7.34528 14.2818 8.76694 12.8464 10.5211 12.8464C10.8531 12.8461 11.1831 12.8985 11.4988 13.0018L11.5034 9.15472C10.545 9.03048 9.57131 9.10692 8.64381 9.37922C7.7163 9.65152 6.85509 10.1138 6.11451 10.7368C5.46559 11.3026 4.92004 11.9778 4.50241 12.7318C4.34349 13.0068 3.74386 14.1118 3.67124 15.9052C3.62558 16.9231 3.93018 17.9777 4.07541 18.4135V18.4227C4.16675 18.6793 4.52068 19.5552 5.09747 20.2935C5.56258 20.8858 6.11209 21.406 6.7283 21.8375V21.8284L6.73743 21.8375C8.56006 23.0805 10.5809 22.9989 10.5809 22.9989C10.9307 22.9847 12.1026 22.9989 13.4334 22.366C14.9094 21.6643 15.7497 20.6189 15.7497 20.6189C16.2865 19.9943 16.7134 19.2824 17.0119 18.5139C17.3526 17.6151 17.4663 16.5372 17.4663 16.1064V8.35542C17.512 8.38292 18.1203 8.78669 18.1203 8.78669C18.1203 8.78669 18.9967 9.35042 20.364 9.71752C21.345 9.97876 22.6666 10.0338 22.6666 10.0338V6.28295C22.2035 6.33336 21.2632 6.1867 20.3005 5.70502Z" fill="white"/>
</svg>
