<svg width="25" height="24" viewBox="0 0 25 24" fill="none" xmlns="http://www.w3.org/2000/svg">
<g clip-path="url(#clip0_0_21)">
<path fill-rule="evenodd" clip-rule="evenodd" d="M13.5104 18.9415C13.5104 18.9415 13.9435 18.8923 14.1654 18.6486C14.3685 18.4254 14.3614 18.0041 14.3614 18.0041C14.3614 18.0041 14.3344 16.0369 15.2277 15.7464C16.1081 15.4608 17.2385 17.6488 18.4382 18.4902C19.3444 19.1263 20.0322 18.9871 20.0322 18.9871L23.238 18.9415C23.238 18.9415 24.9142 18.8359 24.1195 17.488C24.0538 17.3776 23.6559 16.4906 21.7366 14.6686C19.7259 12.7614 19.9958 13.0699 22.4163 9.77039C23.8906 7.76117 24.4799 6.53452 24.2956 6.01001C24.1207 5.50831 23.0361 5.64154 23.0361 5.64154L19.4277 5.66434C19.4277 5.66434 19.1601 5.62713 18.9617 5.74836C18.768 5.86718 18.6424 6.14444 18.6424 6.14444C18.6424 6.14444 18.0719 7.69876 17.3101 9.02143C15.7031 11.8108 15.061 11.9584 14.7981 11.7856C14.1865 11.3811 14.3391 10.1629 14.3391 9.29749C14.3391 6.59333 14.7406 5.4663 13.5585 5.17464C13.1664 5.07742 12.8777 5.01381 11.874 5.003C10.5863 4.9898 9.49701 5.0078 8.87957 5.31627C8.46873 5.52151 8.15179 5.98001 8.34547 6.00641C8.58376 6.03882 9.12373 6.15524 9.41014 6.55372C9.77991 7.06863 9.76699 8.22327 9.76699 8.22327C9.76699 8.22327 9.97946 11.4063 9.27046 11.8012C8.78449 12.0725 8.11774 11.5192 6.68449 8.98783C5.95083 7.69156 5.39678 6.25846 5.39678 6.25846C5.39678 6.25846 5.28996 5.99081 5.09863 5.84678C4.86738 5.67274 4.54457 5.61873 4.54457 5.61873L1.11578 5.64154C1.11578 5.64154 0.600468 5.65594 0.411479 5.88518C0.24362 6.08803 0.398567 6.50931 0.398567 6.50931C0.398567 6.50931 3.08314 12.9318 6.12339 16.1689C8.91126 19.1359 12.0759 18.9415 12.0759 18.9415H13.5104Z" fill="white"/>
</g>
<defs>
<clipPath id="clip0_0_21">
<rect width="24" height="24" fill="white" transform="translate(0.333374)"/>
</clipPath>
</defs>
</svg>
