<svg width="25" height="24" viewBox="0 0 25 24" fill="none" xmlns="http://www.w3.org/2000/svg">
<rect x="6.66675" y="7" width="12" height="11" fill="#5A5A5A"/>
<path d="M12.669 3H12.6645C7.70212 3 3.66675 7.0365 3.66675 12C3.66675 13.9688 4.30125 15.7935 5.38012 17.2751L4.2585 20.6186L7.71787 19.5128C9.141 20.4555 10.8386 21 12.669 21C17.6314 21 21.6667 16.9624 21.6667 12C21.6667 7.03763 17.6314 3 12.669 3ZM17.9059 15.7091C17.6887 16.3223 16.827 16.8307 16.1396 16.9792C15.6694 17.0794 15.0551 17.1593 12.9874 16.302C10.3425 15.2063 8.63925 12.5186 8.5065 12.3442C8.37937 12.1699 7.43775 10.9211 7.43775 9.62963C7.43775 8.33813 8.09362 7.70925 8.358 7.43925C8.57512 7.21763 8.934 7.11637 9.27825 7.11637C9.38962 7.11637 9.48975 7.122 9.57975 7.1265C9.84412 7.13775 9.97687 7.1535 10.1512 7.57088C10.3684 8.094 10.8971 9.3855 10.9601 9.51825C11.0242 9.651 11.0884 9.831 10.9984 10.0054C10.914 10.1854 10.8397 10.2652 10.707 10.4183C10.5742 10.5712 10.4482 10.6883 10.3155 10.8525C10.194 10.9954 10.0567 11.1484 10.2097 11.4128C10.3627 11.6715 10.8915 12.5344 11.67 13.2274C12.6746 14.1217 13.4891 14.4075 13.7805 14.529C13.9976 14.619 14.2564 14.5976 14.415 14.4289C14.6164 14.2118 14.865 13.8518 15.1181 13.4974C15.2981 13.2431 15.5254 13.2116 15.7639 13.3016C16.0069 13.386 17.2927 14.0216 17.5571 14.1532C17.8215 14.286 17.9959 14.349 18.06 14.4604C18.123 14.5718 18.123 15.0949 17.9059 15.7091Z" fill="white"/>
</svg>
